<svg xmlns="http://www.w3.org/2000/svg" data-name="Livello 1" viewBox="0 0 95.38 45.837500000000006" x="0px" y="0px"><title>fish</title><path d="M78.58,44c-6.49-7.3-20.35-12.35-36.41-12.35C22,31.67,5.29,39.62,2.31,50,5.29,60.38,22,68.33,42.17,68.33c16.06,0,29.92-5,36.41-12.35,4,4.49,10.75,8.12,19.11,10.26V33.76C89.33,35.89,82.56,39.53,78.58,44ZM21.69,50.67a5,5,0,1,1,5-5A5,5,0,0,1,21.69,50.67Z" transform="translate(-2.31 -31.67)"/><text x="0" y="51.67" fill="#000000" font-size="5px" font-weight="bold" font-family="'Helvetica Neue', Helvetica, Arial-Unicode, Arial, Sans-serif">Created by Marco Ricci</text><text x="0" y="56.67" fill="#000000" font-size="5px" font-weight="bold" font-family="'Helvetica Neue', Helvetica, Arial-Unicode, Arial, Sans-serif">from the Noun Project</text></svg>